# xmcd
#
# Track frame offsets: 
#        150
#        12178
#        22699
#        35983
#        48870
#        62155
#        70241
#        82746
#        96344
#        108061
#        118286
#        129352
#        141671
#        151610
#        163618
#        174618
#        185388
#        198416
#        210434
#        220949
#        236104
#        248961
#        262121
#        270356
#        282724
#        296664
#        308614
#        318731
#
# Disc length: 4395 seconds
#
# Revision: 0
# Processed by: cddbd v1.5.2PL0 Copyright (c) Steve Scherf et al.
# Submitted via: ExactAudioCopy v0.95b3
#
DISCID=9c11291c
DTITLE=The Left Banke  - Walk Away Renee Complete Edition (FLAC)
DYEAR=1900
DGENRE=
TTITLE0=Pretty Ballerina
TTITLE1=She May Call You Up Tonight
TTITLE2=Barterers And Their Wives
TTITLE3=I've Got Something On My Mind
TTITLE4=Let Go Of You Girl
TTITLE5=Evening Gown
TTITLE6=Walk Away Renee
TTITLE7=What Do You Know
TTITLE8=Shadows Breaking Over My Head
TTITLE9=I Haven't Got the Nerve
TTITLE10=Lazy Day
TTITLE11=Walk Away Renee (single mix)
TTITLE12=I Haven't Got the Nerve (single mix)
TTITLE13=Pretty Ballerina (single mix)
TTITLE14=Lazy Day (single mix)
TTITLE15=She May Call You Up Tonight (single mix)
TTITLE16=Barterers And Their Wives (single mix)
TTITLE17=Pretty Ballerina (remix)
TTITLE18=She May Call You Up Tonight (remix)
TTITLE19=Barterers And Their Wives (remix)
TTITLE20=I've Got Something On My Mind (remix)
TTITLE21=Let Go Of You Girl (remix)
TTITLE22=Evening Gown (remix)
TTITLE23=Walk Away Renee (remix)
TTITLE24=What Do You Know (remix)
TTITLE25=Shadows Breaking Over My Head (remix)
TTITLE26=I Haven't Got the Nerve (remix)
TTITLE27=Lazy Day (remix)
EXTD=
EXTT0=
EXTT1=
EXTT2=
EXTT3=
EXTT4=
EXTT5=
EXTT6=
EXTT7=
EXTT8=
EXTT9=
EXTT10=
EXTT11=
EXTT12=
EXTT13=
EXTT14=
EXTT15=
EXTT16=
EXTT17=
EXTT18=
EXTT19=
EXTT20=
EXTT21=
EXTT22=
EXTT23=
EXTT24=
EXTT25=
EXTT26=
EXTT27=
PLAYORDER=
